<svg width="55" height="55" viewBox="0 0 55 55" fill="none" xmlns="http://www.w3.org/2000/svg">
<circle cx="27.5" cy="27.5" r="27.5" fill="#E9F1FF"/>
<path d="M40.1543 21.703H35.0094V18.7765C35.0094 16.6944 33.3156 15.0005 31.2334 15.0005H22.1237C20.0415 15.0005 18.3477 16.6944 18.3477 18.7765V35.3911C18.3477 37.4733 20.0415 39.1672 22.1237 39.1672H31.2334C33.3156 39.1672 35.0094 37.4733 35.0094 35.3911C35.0094 34.8697 34.5868 34.4471 34.0654 34.4471C33.544 34.4471 33.1214 34.8697 33.1214 35.3911C33.1214 36.4321 32.2744 37.2791 31.2334 37.2791H22.1237C21.0827 37.2791 20.2357 36.4321 20.2357 35.3911V18.7765C20.2357 17.7355 21.0827 16.8885 22.1237 16.8885H31.2334C32.2744 16.8885 33.1214 17.7355 33.1214 18.7765V21.703H30.7142C29.4129 21.703 28.3542 22.7617 28.3542 24.063V30.2463C28.3542 31.5476 29.4129 32.6063 30.7142 32.6063H40.1543C41.4556 32.6063 42.5143 31.5476 42.5143 30.2463V24.063C42.5143 22.7617 41.4556 21.703 40.1543 21.703ZM30.7142 23.591H40.1543C40.4146 23.591 40.6263 23.8026 40.6263 24.063V25.243H30.2422V24.063C30.2422 23.8026 30.4539 23.591 30.7142 23.591ZM40.1543 30.7183H30.7142C30.4539 30.7183 30.2422 30.5066 30.2422 30.2463V27.131H40.6263V30.2463C40.6263 30.5066 40.4146 30.7183 40.1543 30.7183ZM26.6549 33.9279C27.1764 33.9279 27.599 34.3505 27.599 34.8719C27.599 35.3933 27.1764 35.8159 26.6549 35.8159C26.1335 35.8159 25.7109 35.3933 25.7109 34.8719C25.7109 34.3505 26.1335 33.9279 26.6549 33.9279ZM27.599 20.2397H25.7109C25.1895 20.2397 24.7669 19.8172 24.7669 19.2957C24.7669 18.7743 25.1895 18.3517 25.7109 18.3517H27.599C28.1204 18.3517 28.543 18.7743 28.543 19.2957C28.543 19.8172 28.1204 20.2397 27.599 20.2397Z" fill="#1491FF"/>
</svg>
