<svg width="55" height="55" viewBox="0 0 55 55" fill="none" xmlns="http://www.w3.org/2000/svg">
<circle cx="27.5" cy="27.5" r="27.5" fill="#E9F1FF"/>
<path d="M26.277 35.4694C26.277 35.9908 25.8544 36.4134 25.333 36.4134H22.71C22.1886 36.4134 21.766 35.9908 21.766 35.4694C21.766 34.948 22.1886 34.5254 22.71 34.5254H25.333C25.8544 34.5254 26.277 34.948 26.277 35.4694ZM41.6745 20.3652V29.5415C41.6745 30.0629 41.2519 30.4855 40.7305 30.4855H32.3033L30.5352 32.0656V39.0566C30.5352 39.5781 30.1126 40.0006 29.5911 40.0006H18.4518C17.9304 40.0006 17.5078 39.5781 17.5078 39.0566V16.778C17.5078 16.2566 17.9304 15.834 18.4518 15.834H29.5911C30.1126 15.834 30.5352 16.2566 30.5352 16.778V19.4212H40.7305C41.2519 19.4212 41.6745 19.8438 41.6745 20.3652ZM28.6471 33.6798C28.5328 33.7269 28.4109 33.7516 28.288 33.7516C27.7699 33.7516 27.3441 33.3314 27.3441 32.8075V30.4855H25.3331C24.8117 30.4855 24.3891 30.0629 24.3891 29.5415V20.3652C24.3891 19.8438 24.8117 19.4212 25.3331 19.4212H28.6471V17.722H19.3958V38.1126H28.6471V33.6798ZM39.7865 21.3092H26.277V28.5975H28.2882C28.8094 28.5975 29.2322 29.0201 29.2322 29.5415V30.6979L31.314 28.8375C31.4869 28.6828 31.7109 28.5975 31.9431 28.5975H39.7865V21.3092Z" fill="#1491FF"/>
</svg>
