<svg width="55" height="55" viewBox="0 0 55 55" fill="none" xmlns="http://www.w3.org/2000/svg">
<circle cx="27.5" cy="27.5" r="27.5" fill="#E9F1FF"/>
<path d="M24.1237 33.7711H22.2766C22.0844 33.0391 21.7073 32.38 21.1984 31.8432L22.1937 30.3075C22.5309 29.7872 22.3756 29.0964 21.8468 28.7647C21.3181 28.433 20.6159 28.5858 20.2787 29.106L19.2848 30.6396C18.8415 30.4972 18.3688 30.4192 17.8779 30.4192C15.3732 30.4192 13.3354 32.4241 13.3354 34.8884C13.3354 37.3527 15.3732 39.3576 17.8779 39.3576C19.9906 39.3576 21.771 37.9311 22.2766 36.0057H24.1237C24.7509 36.0057 25.2593 35.5055 25.2593 34.8884C25.2593 34.2712 24.7509 33.7711 24.1237 33.7711ZM17.8779 37.123C16.6255 37.123 15.6067 36.1205 15.6067 34.8884C15.6067 33.6562 16.6255 32.6538 17.8779 32.6538C19.1302 32.6538 20.1491 33.6562 20.1491 34.8884C20.1491 36.1205 19.1302 37.123 17.8779 37.123Z" fill="#1491FF"/>
<path d="M37.8645 30.4192C37.3735 30.4192 36.9008 30.4972 36.4576 30.6397L35.4636 29.1061C35.1264 28.5858 34.4242 28.433 33.8956 28.7647C33.3668 29.0965 33.2114 29.7872 33.5487 30.3075L34.544 31.8432C34.0351 32.38 33.658 33.0391 33.4659 33.7711H31.6186C30.9914 33.7711 30.483 34.2713 30.483 34.8884C30.483 35.5055 30.9914 36.0057 31.6186 36.0057H33.4658C33.9713 37.9312 35.7517 39.3576 37.8645 39.3576C40.3691 39.3576 42.4069 37.3527 42.4069 34.8884C42.4069 32.4241 40.3691 30.4192 37.8645 30.4192ZM37.8645 37.123C36.6121 37.123 35.5932 36.1205 35.5932 34.8884C35.5932 33.6562 36.6121 32.6538 37.8645 32.6538C39.1168 32.6538 40.1357 33.6562 40.1357 34.8884C40.1357 36.1205 39.1168 37.123 37.8645 37.123Z" fill="#1491FF"/>
<path d="M31.84 25.5933C32.3688 25.2615 32.5242 24.5707 32.187 24.0505L31.1916 22.5148C31.9489 21.7161 32.4136 20.6455 32.4136 19.4697C32.4136 17.0054 30.3758 15.0005 27.8712 15.0005C25.3665 15.0005 23.3287 17.0054 23.3287 19.4697C23.3287 20.6455 23.7934 21.7161 24.5507 22.5149L23.5553 24.0506C23.2181 24.5709 23.3734 25.2616 23.9022 25.5934C24.4322 25.9259 25.1338 25.7712 25.4703 25.252L26.4643 23.7184C26.9075 23.8609 27.3801 23.9389 27.8711 23.9389C28.3621 23.9389 28.8347 23.8609 29.2779 23.7184L30.2719 25.252C30.6093 25.7723 31.3112 25.9251 31.84 25.5933ZM27.8712 21.7043C26.6188 21.7043 25.5999 20.7018 25.5999 19.4697C25.5999 18.2375 26.6188 17.2351 27.8712 17.2351C29.1235 17.2351 30.1424 18.2375 30.1424 19.4697C30.1424 20.7018 29.1235 21.7043 27.8712 21.7043Z" fill="#1491FF"/>
</svg>
