<svg width="147" height="42" viewBox="0 0 147 42" fill="none" xmlns="http://www.w3.org/2000/svg">
<path d="M51.2131 10.4568V35.9124H45.3308V10.4568H51.2131ZM66.1447 30.8556V35.9124H63.4959C61.2485 35.9124 59.4941 35.362 58.2328 34.2612C56.9944 33.1375 56.3752 31.2914 56.3752 28.7229V21.671H53.7953V16.7175H56.3752V12.0047H62.2575V16.7175H66.1103V21.671H62.2575V28.8261C62.2575 29.5829 62.4066 30.1103 62.7047 30.4084C63.0258 30.7066 63.5532 30.8556 64.2871 30.8556H66.1447ZM75.3331 20.3294C76.0669 19.1598 77.0072 18.231 78.1538 17.543C79.3234 16.855 80.5847 16.5111 81.9378 16.5111V22.8062H80.2522C78.6928 22.8062 77.4773 23.1387 76.6059 23.8037C75.7573 24.4688 75.3331 25.5925 75.3331 27.1749V35.9124H69.4508V16.7175H75.3331V20.3294ZM91.6924 16.4767C93.1602 16.4767 94.4215 16.8092 95.4764 17.4742C96.5313 18.1393 97.311 19.0451 97.8156 20.1918V16.7175H103.663V35.9124H97.8156V32.438C97.311 33.5847 96.5313 34.4905 95.4764 35.1556C94.4215 35.8206 93.1602 36.1531 91.6924 36.1531C90.1101 36.1531 88.6882 35.7633 87.4269 34.9836C86.1885 34.1809 85.2024 33.0343 84.4686 31.5436C83.7576 30.053 83.4022 28.3101 83.4022 26.3149C83.4022 24.2968 83.7576 22.5539 84.4686 21.0862C85.2024 19.5955 86.1885 18.4604 87.4269 17.6806C88.6882 16.878 90.1101 16.4767 91.6924 16.4767ZM93.5844 21.6366C92.3231 21.6366 91.3026 22.0494 90.5229 22.875C89.7661 23.7005 89.3877 24.8472 89.3877 26.3149C89.3877 27.7826 89.7661 28.9293 90.5229 29.7548C91.3026 30.5804 92.3231 30.9932 93.5844 30.9932C94.8228 30.9932 95.8319 30.569 96.6116 29.7204C97.4142 28.8719 97.8156 27.7367 97.8156 26.3149C97.8156 24.8701 97.4142 23.7349 96.6116 22.9094C95.8319 22.0608 94.8228 21.6366 93.5844 21.6366ZM119.891 16.5111C122.092 16.5111 123.835 17.2449 125.12 18.7126C126.427 20.1803 127.08 22.1984 127.08 24.7669V35.9124H121.198V25.4549C121.198 24.1707 120.854 23.1731 120.166 22.4622C119.501 21.7283 118.607 21.3614 117.483 21.3614C116.29 21.3614 115.339 21.7398 114.628 22.4966C113.94 23.2534 113.596 24.3312 113.596 25.7301V35.9124H107.713V16.7175H113.596V20.2262C114.146 19.0795 114.96 18.1737 116.038 17.5086C117.139 16.8436 118.423 16.5111 119.891 16.5111ZM136.154 30.9932H145.029V35.9124H129.722V31.2684L137.977 21.6022H129.859V16.7175H144.685V21.3614L136.154 30.9932Z" fill="#2D78FF"/>
<path d="M31.7546 23.7222C30.4009 28.5969 25.9307 32.1746 20.6248 32.1746C14.2459 32.1746 9.0749 27.0036 9.0749 20.6248C9.0749 15.7012 12.284 11.447 16.661 9.80156C19.0647 8.89795 21.5851 7.17003 22.0501 4.64457C22.4887 2.26349 22.5446 0 20.6248 0C9.23402 0 0 9.23402 0 20.6248C0 32.0155 9.23402 41.2495 20.6248 41.2495C32.0155 41.2495 41.2495 32.0155 41.2495 20.6248C41.2495 16.5561 40.0714 12.7627 38.0377 9.56687C35.5961 5.72998 31.6412 9.18904 32.3451 13.6821C33.0362 18.094 32.5748 21.4836 31.7546 23.7222Z" fill="#2D78FF"/>
<path d="M12.0706 28.3854C7.38897 26.6023 3.32257 23.0795 0.0409962 19.3137C0.0138022 19.7473 0 20.1844 0 20.6248C0 32.0155 9.23402 41.2495 20.6248 41.2495C32.0155 41.2495 41.2495 32.0155 41.2495 20.6248C41.2495 11.9036 35.8365 4.44661 28.1869 1.43042C33.5489 12.0611 33.2208 19.7429 31.75 23.7386C30.3909 28.6049 25.9247 32.1746 20.6248 32.1746C17.2335 32.1746 14.1836 30.7131 12.0706 28.3854Z" fill="#00A3FF"/>
</svg>
