<svg width="44" height="35" viewBox="0 0 44 35" fill="none" xmlns="http://www.w3.org/2000/svg">
<path d="M21.7778 22.8261C24.681 22.8261 27.0345 20.4415 27.0345 17.5C27.0345 14.5585 24.681 12.1739 21.7778 12.1739C18.8746 12.1739 16.5211 14.5585 16.5211 17.5C16.5211 20.4415 18.8746 22.8261 21.7778 22.8261Z" fill="#2D78FF"/>
<path d="M29.8678 15.8025C29.6591 14.7738 29.2588 13.7999 28.6798 12.9089C28.5041 12.6388 28.5169 12.2858 28.7106 12.0286L29.8093 10.573L28.6152 9.36326L27.1787 10.4764C26.9256 10.6735 26.5771 10.6857 26.3098 10.5076C25.4304 9.92098 24.4692 9.51544 23.4539 9.30391C23.1408 9.23848 22.9035 8.97978 22.8607 8.65946L22.6226 6.84783H20.9337L20.6956 8.6587C20.6536 8.97902 20.4155 9.23772 20.1024 9.30315C19.0871 9.51467 18.1259 9.92022 17.2465 10.5068C16.9799 10.6841 16.6307 10.672 16.3776 10.4757L14.9411 9.3625L13.747 10.5723L14.8457 12.0278C15.0394 12.285 15.0522 12.638 14.8765 12.9082C14.2975 13.7991 13.8972 14.773 13.6885 15.8017C13.6239 16.119 13.3685 16.3595 13.0524 16.4028L11.2644 16.644V18.3552L13.0516 18.5964C13.3678 18.639 13.6231 18.8802 13.6877 19.1975C13.8965 20.2262 14.2967 21.2001 14.8757 22.0911C15.0514 22.3612 15.0387 22.7142 14.8449 22.9714L13.7463 24.427L14.9403 25.6367L16.3769 24.5236C16.6315 24.3273 16.9799 24.3151 17.2457 24.4924C18.1251 25.079 19.0863 25.4846 20.1016 25.6961C20.4148 25.7615 20.6521 26.0202 20.6949 26.3405L20.9329 28.1522H22.6218L22.8599 26.3413C22.902 26.021 23.14 25.7623 23.4532 25.6968C24.4685 25.4853 25.4297 25.0798 26.309 24.4932C26.5749 24.3151 26.9241 24.328 27.1779 24.5243L28.6145 25.6375L29.8085 24.4277L28.7099 22.9722C28.5161 22.715 28.5033 22.362 28.6791 22.0918C29.2581 21.2009 29.6583 20.227 29.8671 19.1983C29.9317 18.881 30.187 18.6405 30.5031 18.5972L32.2912 18.356V16.6448L30.5039 16.4036C30.1877 16.3602 29.9324 16.119 29.8678 15.8025ZM21.7778 24.3478C18.0515 24.3478 15.0192 21.2754 15.0192 17.5C15.0192 13.7246 18.0515 10.6522 21.7778 10.6522C25.504 10.6522 28.5364 13.7246 28.5364 17.5C28.5364 21.2754 25.504 24.3478 21.7778 24.3478Z" fill="#2D78FF"/>
<path d="M39.0498 15.2174H43.5555V19.7826H39.0498V15.2174Z" fill="#2D78FF"/>
<path d="M39.0498 30.4348H43.5555V35H39.0498V30.4348Z" fill="#2D78FF"/>
<path d="M39.0498 0H43.5555V4.56522H39.0498V0Z" fill="#2D78FF"/>
<path d="M0 15.2174H4.50575V19.7826H0V15.2174Z" fill="#2D78FF"/>
<path d="M0 30.4348H4.50575V35H0V30.4348Z" fill="#2D78FF"/>
<path d="M0 0H4.50575V4.56522H0V0Z" fill="#2D78FF"/>
<path d="M9.01149 2.28261C9.01149 1.86261 8.67506 1.52174 8.26053 1.52174H6.00766V3.04348H7.50958V16.7391H6.00766V18.2609H7.50958V31.9565H6.00766V33.4783H8.26053C8.67506 33.4783 9.01149 33.1374 9.01149 32.7174V18.2609H9.76245V16.7391H9.01149V2.28261Z" fill="#2D78FF"/>
<path d="M34.544 2.28261V16.7391H33.7931V18.2609H34.544V32.7174C34.544 33.1374 34.8805 33.4783 35.295 33.4783H37.5479V31.9565H36.046V18.2609H37.5479V16.7391H36.046V3.04348H37.5479V1.52174H35.295C34.8805 1.52174 34.544 1.86261 34.544 2.28261Z" fill="#2D78FF"/>
</svg>
