<svg width="23" height="35" viewBox="0 0 23 35" fill="none" xmlns="http://www.w3.org/2000/svg">
<path d="M18.7988 0H3.75977C1.68663 0 0 1.68663 0 3.75977V31.2402C0 33.3134 1.68663 35 3.75977 35H18.7988C20.872 35 22.5586 33.3134 22.5586 31.2402V3.75977C22.5586 1.68663 20.872 0 18.7988 0ZM3.75977 2.05078H18.7988C19.7412 2.05078 20.5078 2.81743 20.5078 3.75977V28.7109H2.05078V3.75977C2.05078 2.81743 2.81743 2.05078 3.75977 2.05078ZM18.7988 32.9492H3.75977C2.81743 32.9492 2.05078 32.1826 2.05078 31.2402V30.7617H20.5078V31.2402C20.5078 32.1826 19.7412 32.9492 18.7988 32.9492Z" fill="#2D78FF"/>
<path d="M15.3809 16.4062H7.17773C6.61145 16.4062 6.15234 16.8654 6.15234 17.4316V25.6348C6.15234 26.2011 6.61145 26.6602 7.17773 26.6602H15.3809C15.9471 26.6602 16.4062 26.2011 16.4062 25.6348V17.4316C16.4062 16.8654 15.9471 16.4062 15.3809 16.4062ZM14.3555 24.6094H8.20312V18.457H10.2539V19.4824C10.2539 20.0487 10.713 20.5078 11.2793 20.5078C11.8456 20.5078 12.3047 20.0487 12.3047 19.4824V18.457H14.3555V24.6094Z" fill="#2D78FF"/>
<path d="M11.2793 14.3555C11.8456 14.3555 12.3047 13.8964 12.3047 13.3301C12.3047 12.7638 11.8456 12.3047 11.2793 12.3047C10.713 12.3047 10.2539 12.7638 10.2539 13.3301C10.2539 13.8964 10.713 14.3555 11.2793 14.3555Z" fill="#2D78FF"/>
<path d="M14.9046 11.1549C15.3051 10.7544 15.3051 10.1052 14.9046 9.70477C13.9363 8.73639 12.6488 8.20312 11.2793 8.20312C9.90988 8.20312 8.62233 8.73639 7.65402 9.70477C7.25364 10.1052 7.25364 10.7544 7.65402 11.1549C7.85425 11.3551 8.11668 11.4552 8.37904 11.4552C8.64141 11.4552 8.90391 11.3551 9.10413 11.1548C9.68519 10.5739 10.4576 10.2539 11.2793 10.2539C12.1011 10.2539 12.8735 10.5739 13.4545 11.1549C13.855 11.5554 14.5043 11.5554 14.9046 11.1549Z" fill="#2D78FF"/>
<path d="M6.20386 8.2546C7.55956 6.89896 9.36213 6.15234 11.2793 6.15234C13.1966 6.15234 14.999 6.89896 16.3547 8.2546C16.555 8.45482 16.8174 8.55497 17.0798 8.55497C17.3421 8.55497 17.6046 8.45482 17.8048 8.2546C18.2052 7.85422 18.2052 7.20494 17.8048 6.80449C16.0618 5.06147 13.7444 4.10156 11.2793 4.10156C8.8143 4.10156 6.49685 5.06146 4.75382 6.80456C4.35337 7.20494 4.35337 7.85422 4.75382 8.25467C5.1542 8.65505 5.80348 8.65512 6.20386 8.2546Z" fill="#2D78FF"/>
</svg>
