<svg width="16" height="35" viewBox="0 0 16 35" fill="none" xmlns="http://www.w3.org/2000/svg">
<path d="M1.19658 16.3333C1.19658 17.1704 0.729914 17.9352 0 18.3464V19.8333H1.19658V16.3333Z" fill="#2D78FF"/>
<path d="M5.9829 7.22283V0H2.39316V7.22283L4.18803 8.09783L5.9829 7.22283ZM3.58974 1.16667H4.78632V4.66667H3.58974V1.16667Z" fill="#2D78FF"/>
<path d="M15.5556 14.3202V1.75C15.5556 0.785167 14.7503 0 13.7607 0H7.17949V19.8333H5.9829V8.52717L4.18803 9.40217L2.39316 8.52717V19.8333H4.18803C2.53855 19.8333 1.19658 21.1417 1.19658 22.75V31.5H2.39316V22.75C2.39316 21.7852 3.19846 21 4.18803 21H11.3675C12.3571 21 13.1624 21.7852 13.1624 22.75V35H14.359V22.75C14.359 21.1417 13.017 19.8333 11.3675 19.8333H15.5556V18.3464C14.8256 17.9346 14.359 17.1704 14.359 16.3333C14.359 15.4962 14.8256 14.7315 15.5556 14.3202ZM3.58974 18.6667V15.1667H4.78632V18.6667H3.58974Z" fill="#2D78FF"/>
<path d="M0 1.75V14.3202C0.729914 14.7321 1.19658 15.4962 1.19658 16.3333V0.107333C0.501966 0.348833 0 0.9905 0 1.75Z" fill="#2D78FF"/>
</svg>
